<svg enable-background="new 0 0 540 160" viewBox="0 0 540 160" xmlns="http://www.w3.org/2000/svg"><path d="m523 49.1c1.2 0 2.3.3 3.3 1 1 .6 1.7 1.6 2.2 2.7s.6 2.3.3 3.4c-.2 1.2-.8 2.2-1.6 3s-1.9 1.4-3 1.6c-1.2.2-2.4.1-3.4-.3-1.1-.5-2-1.2-2.7-2.2s-1-2.1-1-3.3c0-.8.1-1.6.4-2.3s.7-1.4 1.3-1.9c.5-.6 1.2-1 1.9-1.3.8-.3 1.5-.4 2.3-.4zm0 .9c-1.3 0-2.5.6-3.4 1.5s-1.4 2.2-1.4 3.5.5 2.5 1.4 3.5c.9.9 2.1 1.5 3.4 1.5.6 0 1.3-.2 1.9-.4.6-.3 1.1-.6 1.6-1.1.4-.5.8-1 1-1.6s.3-1.2.3-1.9c0-.6-.1-1.3-.3-1.9s-.6-1.1-1-1.6-1-.8-1.6-1.1-1.2-.4-1.9-.4zm-1.1 8.4h-1v-6.6c.6-.1 1.2-.2 1.9-.2s1.4.1 2.1.5c.2.2.4.4.5.6s.2.5.1.8c0 .4-.1.7-.4 1-.2.3-.6.5-.9.6v.1c.6.1 1 .6 1.1 1.6.1.6.2 1.1.4 1.6h-1.1c-.2-.5-.4-1.1-.4-1.7 0-.2-.1-.3-.1-.5-.1-.2-.2-.3-.3-.4s-.3-.2-.5-.2-.3-.1-.5 0h-.7zm0-3.6h.8c.9 0 1.6-.3 1.6-1.1 0-.6-.4-1.2-1.6-1.2-.3 0-.5 0-.8.1z"/><path d="m512.6 50.3c-6.4-4.5-16-5-22.3-.8-2 1.6-3.6 3.6-4.6 6s-1.4 4.9-1.1 7.5c1.1 6.2 5.2 11.3 9.2 16.2 4.6 5.6 8.9 10.9 8.8 17.6-.1 1-.5 2-1 2.9s-1.2 1.7-2 2.3c-2.3 1.8-8 1.8-11.2.2l-2.4-1.1.1 12.8s13 4.5 23.7-3.4c2.3-1.8 4.1-4.2 5.2-7 2.3-6.2 1.5-13.8-2.2-20.4-1.6-3.2-4.1-6.1-6.5-8.9-2.8-3.3-5.5-6.5-6.7-9.9-.5-2.1-.3-4.4 1.9-5.9 2.1-1.3 5.7.2 8.9 2.2 1.1.7 2.2 1.5 3.2 2.4l-.4-12.2z"/><path d="m482.5 58.5v-10.7h-30.5v.2h-.1v65.1h.1v.3h30.5v-10.8h-17.4v-19h11.4v-10.7h-11.4v-14.4z"/><path d="m42.4 102.4s-14.5.1-17 0l.3-54.6h-14.7l.1 65.3 30.2.1z"/><path d="m361.4 102.5s-12.8.1-15.3 0l.3-54.6h-14.3l.1 65.3 27.7.1z"/><path d="m393.9 113.2 12.7.1-6.2-65-14.9-.2h-.2c-8.3.9-11.2 4.9-12.3 8.1l-.1.2c-.4 2.4-2.2 15.7-3 20l-.2 1.2c-3.1.4-6.1 1.1-9 2.2l-1.8 13.2c3-1 6-1.8 9.2-2.4-1.2 8-3.3 22.8-3.3 22.8l12.3-.1 3.5-23.6c4 .2 7.8 1.3 11.2 3.3zm-11.6-35.9c.3-2.2.6-4.3.9-6.4.4-3.2.8-6.5 1.5-9.7.2-.5.6-1 1-1.4s1-.6 1.6-.8l.2-.1c.5-.2 1.1-.2 1.6 0l1.5 19.8c-1.2-.4-2.5-.7-3.7-1-1.6-.2-3.1-.3-4.6-.4"/><path d="m434.5 76.4 14.2-28.5h-13.7l-11.9 23.7-.2-.1.1-23.6-13.4.1.1 65.1h13.1l.1-27.9v-.7c14.6 7.3 12.5 28.6 12.5 28.6h13.4c.4-12.3-2.7-28.2-14.3-36.7"/><path d="m137.8 47.7.1 65.5-13.2.1s0-2.7-.1-6.5c-.2-8.1-3.3-22.6-14.3-37l-.3 43.3-13.6.2.1-65.3s2.3-.1 2.9-.1c12.4 0 22.1 13.7 24.6 19.6l-.3-19.7h14.1z"/><path d="m184.6 62.9c5.8 10.6 5.3 28.5-2.1 38.6-5.2 7-14.9 11.5-25.7 11.5l-10-.2.2-64.8h9.9c12.4.1 22.4 5.2 27.7 14.9zm-13 3.8c-2.2-3.6-7-6.5-11.5-6.7l-.2 41.8c5.2-.6 9.5-3.4 12.3-8.5 3.7-6.6 4.4-18.3-.6-26.6"/><path d="m89.2 113.3-6.4-65-15.4-.2h-.2c-8.5.9-11.6 4.9-12.7 8.1l-.1.2c-.4 2.4-2.3 15.7-3.1 20l-.2 1.2c-3.1.4-6.1 1.1-9 2.2l-1.6 13.2c3-1 6-1.8 9.1-2.3-1.2 8-3.4 22.8-3.4 22.8l12.7-.1 3.6-23.6c4.2.3 8.3 1.3 11.6 3.6l2.1 19.8zm-25-36c.4-2.2.6-4.3.9-6.4.4-3.2.8-6.5 1.5-9.7.2-.6.6-1 1.1-1.4s1-.6 1.6-.8l.2-.1c.6-.2 1.1-.2 1.7 0l1.6 20c-1.4-.5-2.8-.8-4.3-1.1-1.5-.2-2.9-.4-4.3-.5"/><path d="m204.6 79.6c0 11 3.3 21.8 9.4 30.9s14.8 16.3 25 20.5 21.4 5.3 32.1 3.2c10.8-2.1 20.7-7.4 28.5-15.2s13.1-17.7 15.2-28.5 1-22-3.2-32.1c-4.2-10.2-11.3-18.9-20.5-25s-19.9-9.4-30.9-9.4c-14.7 0-28.9 5.9-39.3 16.3s-16.3 24.6-16.3 39.3zm95.8-.5c0 7.9-2.3 15.6-6.7 22.2s-10.6 11.7-17.9 14.7-15.3 3.8-23.1 2.3-14.9-5.3-20.5-10.9-9.4-12.7-10.9-20.5c-1.5-7.7-.8-15.8 2.3-23.1 3-7.3 8.1-13.5 14.7-17.9s14.3-6.7 22.2-6.7c10.6 0 20.7 4.2 28.2 11.7 7.5 7.4 11.7 17.6 11.7 28.2"/></svg>