<svg enable-background="new 0 0 551.3 71.8" viewBox="0 0 551.3 71.8" xmlns="http://www.w3.org/2000/svg"><g fill="#c84634"><path d="m339 16.7c-10.6 0-19.2 8.6-19.2 19.2s8.6 19.1 19.2 19.1 19.2-8.6 19.2-19.2-8.6-19.1-19.2-19.1zm0 31.3c-6.7 0-12.1-5.4-12.1-12.1s5.4-12.1 12.1-12.1 12.1 5.4 12.1 12.1-5.4 12.1-12.1 12.1z" opacity=".65"/><path d="m339 62.6c-14.7 0-26.7-12-26.7-26.7s12-26.7 26.7-26.7 26.7 12 26.7 26.7-12 26.7-26.7 26.7zm0-49.5c-12.6 0-22.8 10.2-22.8 22.8s10.2 22.8 22.8 22.8 22.8-10.2 22.8-22.8-10.3-22.8-22.8-22.8z" opacity=".45"/><path d="m339 71.8c-19.8 0-35.9-16.1-35.9-35.9s16.1-35.9 35.9-35.9 35.9 16.1 35.9 35.9-16.1 35.9-35.9 35.9zm0-66.5c-16.9 0-30.6 13.7-30.6 30.6s13.7 30.6 30.6 30.6 30.6-13.7 30.6-30.6-13.7-30.6-30.6-30.6z" opacity=".35"/><circle cx="339" cy="35.9" r="8.2"/><path d="m22.5 60.2c-7.2 0-12.7-2.1-16.6-6.4s-5.9-10.2-5.9-18c0-5.1.9-9.5 2.7-13.1s4.3-6.4 7.7-8.3 7.4-2.9 12.1-2.9 8.8 1 12.1 2.9 5.9 4.7 7.7 8.3 2.7 8 2.7 13.1c0 7.7-1.9 13.7-5.9 18-3.9 4.3-9.4 6.4-16.6 6.4zm0-10.8c6.2 0 9.4-4.5 9.4-13.6 0-9-3.1-13.5-9.4-13.5s-9.4 4.5-9.4 13.5c0 9.1 3.1 13.6 9.4 13.6z"/><path d="m57.9 59.2v-46.6h19.2c5.6 0 10.1 1.4 13.3 4.1s4.8 6.5 4.8 11.3c0 3.1-.8 5.8-2.5 7.9-1.7 2.2-4 3.7-6.9 4.7l11.2 18.6h-13.2l-8.7-15.6-4.7-1.5v17zm12.5-24.9h4c3 0 5.1-.5 6.4-1.4s1.9-2.5 1.9-4.6-.6-3.7-1.9-4.6-3.4-1.4-6.4-1.4h-4z"/><path d="m104.8 59.2 17.2-46.6h12.6l17.4 46.6h-14.2l-2.4-8.1h-14.6l-2.3 8.1zm18.8-18h8.8l-4.4-15.3z"/><path d="m196.7 47.2v10.3c-3.8 1.8-8.3 2.7-13.5 2.7-7.4 0-13-2.2-17.1-6.5-4-4.3-6.1-10.5-6.1-18.4 0-4.9 1-9.1 2.9-12.7 1.9-3.5 4.7-6.3 8.3-8.2s7.9-2.9 12.8-2.9c4.2 0 8 .8 11.3 2.4v10.4c-2.3-.7-4.2-1.2-5.7-1.4-1.6-.3-3.1-.4-4.7-.4-3.6 0-6.5 1.2-8.6 3.5s-3.2 5.5-3.2 9.4c0 4.5 1 8 3 10.4s4.9 3.7 8.8 3.7c1.7 0 3.5-.2 5.3-.5 1.9-.4 4-1 6.5-1.8z"/><path d="m208.8 59.2v-46.6h12.8v35.7h18.8v10.9z"/><path d="m252.4 59.2v-46.6h31.4v10.2h-18.8v8h16.9v10.1h-16.9v8.1h19.5v10.2z"/><path d="m395.4 59.2v-46.6h12.8v35.7h18.8v10.9z"/><path d="m439 59.2v-46.6h12.8v46.6z"/><path d="m479.3 59.2-16.8-46.6h14.4l8.9 30.6 9-30.6h13.8l-16.7 46.6z"/><path d="m519.3 59.2v-46.6h31.4v10.2h-18.8v8h16.9v10.1h-16.9v8.1h19.5v10.2z"/></g></svg>